<svg aria-hidden="true" fill="none" viewBox="0 0 72 38" xmlns="http://www.w3.org/2000/svg">
  <path
    d="M6.4 25.6C10.9 12.4 24.2 3.5 31.3 9.2C38.7 15.1 26.5 30.6 13.5 30.2C6.8 30 3.9 26 7.4 21.1C13.2 12.9 29.3 13.2 38.6 21.1"
    stroke="#303914"
    stroke-linecap="round"
    stroke-linejoin="round"
    stroke-width="2.2"
  />
  <path
    d="M35.5 23.5C40.1 11.4 54.3 4.4 61.7 10.4C68.8 16.2 56.7 29.9 44.4 29.6C36.4 29.4 33.8 24.7 38.7 19.8C45.5 12.9 58.5 13 69 18.4"
    stroke="#303914"
    stroke-linecap="round"
    stroke-linejoin="round"
    stroke-width="2.2"
  />
  <path
    d="M19.1 27.8C25.5 21.2 33.2 17.3 44.8 15.6M43.8 28.1C48.8 22.6 55.8 18.6 65.5 17.7"
    stroke="#303914"
    stroke-linecap="round"
    stroke-width="1.25"
    opacity="0.48"
  />
</svg>
